<?xml version="1.0" encoding="utf-8"?>
<!-- Generator: Adobe Illustrator 22.1.0, SVG Export Plug-In . SVG Version: 6.00 Build 0)  -->
<svg version="1.1" id="Layer_1" xmlns="http://www.w3.org/2000/svg" xmlns:xlink="http://www.w3.org/1999/xlink" x="0px" y="0px"
	 viewBox="0 0 16 16" style="enable-background:new 0 0 16 16;" xml:space="preserve">
<style type="text/css">
	.st0{fill:#F9F9F8;}
	.st1{fill:#B3B3B3;}
</style>
<g id="text-x-script">
	<path class="st0" d="M14,14V5l-4-4H3c0,0-1,0-1,1v12c0,0,0,1,1,1h10C13,15,14,15,14,14z"/>
	<polygon class="st1" points="10,1 14,5 10,5 	"/>
	<path class="st1" d="M8,9H7V8h2c0,0,0-1-1-1H7V6H6v1H5c0,0-1,0-1,1s0,1,0,1s0,1,1,1h1v1H4c0,0,0,1,1,1h1v1h1v-1h1c0,0,1,0,1-1v-1
		C9,10,9,9,8,9z M6,9H5V8h1V9z M8,11H7v-1h1V11z"/>
	<rect x="9" y="11" class="st1" width="3" height="1"/>
</g>
</svg>
