<?xml version="1.0" encoding="utf-8"?>
<!-- Generator: Adobe Illustrator 22.1.0, SVG Export Plug-In . SVG Version: 6.00 Build 0)  -->
<svg version="1.1" id="Layer_1" xmlns="http://www.w3.org/2000/svg" xmlns:xlink="http://www.w3.org/1999/xlink" x="0px" y="0px"
	 viewBox="0 0 16 16" style="enable-background:new 0 0 16 16;" xml:space="preserve">
<style type="text/css">
	.st0{fill:#D86612;}
	.st1{fill:#F9F9F8;}
	.st2{fill:#FFB115;}
</style>
<g id="folder-downloads">
	<path class="st0" d="M15,6V3c0,0,0-1-1-1H8L7,3H2c0,0-1,0-1,1v2H15z"/>
	<path class="st1" d="M3,4c1,0,10,0,10,0s1,0,1,1v1H2V5C2,5,2,4,3,4z"/>
	<path class="st2" d="M15,13V6H8L7,5H2c0,0-1,0-1,1c0,2.2,0,5.4,0,7c0,1,1,1,1,1s10,0,12,0C15,14,15,13,15,13z"/>
	<rect x="6" y="11" class="st0" width="4" height="1"/>
	<polygon class="st0" points="8,11 10,9 9,9 9,8 7,8 7,9 6,9 	"/>
</g>
</svg>
