<?xml version="1.0" encoding="utf-8"?>
<!-- Generator: Adobe Illustrator 22.1.0, SVG Export Plug-In . SVG Version: 6.00 Build 0)  -->
<svg version="1.1" id="Layer_1" xmlns="http://www.w3.org/2000/svg" xmlns:xlink="http://www.w3.org/1999/xlink" x="0px" y="0px"
	 viewBox="0 0 16 16" style="enable-background:new 0 0 16 16;" xml:space="preserve">
<style type="text/css">
	.st0{fill:#B3B3B3;}
	.st1{fill:#666666;}
	.st2{fill:#110F26;}
</style>
<g id="network-server">
	<path class="st0" d="M14,12H2V3c0,0,0-1,1-1s9,0,10,0s1,1,1,1V12z"/>
	<g>
		<path class="st1" d="M2,10c0,0,0,1,1,1h10c0,0,1,0,1-1v3c0,0,0,1-1,1H3c0,0-1,0-1-1S2,10,2,10z"/>
		<polygon class="st0" points="4,13 5,12 6,12 5,13 		"/>
		<polygon class="st0" points="6,13 7,12 8,12 7,13 		"/>
		<polygon class="st0" points="8,13 9,12 10,12 9,13 		"/>
		<rect x="11" y="12" class="st2" width="1" height="1"/>
	</g>
	<g>
		<path class="st1" d="M2,6c0,0,0,1,1,1h10c0,0,1,0,1-1v3c0,0,0,1-1,1H3c0,0-1,0-1-1S2,6,2,6z"/>
		<polygon class="st0" points="4,9 5,8 6,8 5,9 		"/>
		<polygon class="st0" points="6,9 7,8 8,8 7,9 		"/>
		<polygon class="st0" points="8,9 9,8 10,8 9,9 		"/>
		<rect x="11" y="8" class="st2" width="1" height="1"/>
	</g>
	<polygon class="st1" points="8,6 10,4 6,4 	"/>
</g>
</svg>
