<?xml version="1.0" encoding="utf-8"?>
<!-- Generator: Adobe Illustrator 22.1.0, SVG Export Plug-In . SVG Version: 6.00 Build 0)  -->
<svg version="1.1" id="Layer_1" xmlns="http://www.w3.org/2000/svg" xmlns:xlink="http://www.w3.org/1999/xlink" x="0px" y="0px"
	 viewBox="0 0 16 16" style="enable-background:new 0 0 16 16;" xml:space="preserve">
<style type="text/css">
	.st0{fill:#666666;}
	.st1{fill:#B3B3B3;}
</style>
<g id="user-trash-full">
	<path class="st0" d="M15,5c0,0,0-2-2-2h-1c0,0,0-2-2-2H6c0,0-2,0-2,2H3C1,3,1,5,1,5H15z"/>
	<path class="st1" d="M5,15h6c2,0,2-2,2-2s1-1,1-3s-1-4-1-4H3c0,0-1,2-1,4s1,3,1,3S3,15,5,15z"/>
</g>
</svg>
