<?xml version="1.0" encoding="utf-8"?>
<!-- Generator: Adobe Illustrator 22.1.0, SVG Export Plug-In . SVG Version: 6.00 Build 0)  -->
<svg version="1.1" id="Layer_1" xmlns="http://www.w3.org/2000/svg" xmlns:xlink="http://www.w3.org/1999/xlink" x="0px" y="0px"
	 viewBox="0 0 16 16" style="enable-background:new 0 0 16 16;" xml:space="preserve">
<style type="text/css">
	.st0{fill:#666666;}
	.st1{fill:#B3B3B3;}
	.st2{fill:#110F26;}
	.st3{fill:#F44336;}
	.st4{fill:#F9F9F8;}
</style>
<g id="computer">
	<path class="st0" d="M14,15c0,0,1,0,1-1V2c0,0,0-1-1-1H2c0,0-1,0-1,1v12c0,0,0,1,1,1H14z"/>
	<g>
		<path class="st1" d="M1,5c0,0,0-1,1-1h12c0,0,1,0,1,1v8c0,0,0,1-1,1s0,0,0,0H2c0,0-1,0-1-1S1,5,1,5z"/>
		<rect x="3" y="5" class="st2" width="10" height="6"/>
		<rect x="3" y="12" class="st2" width="4" height="1"/>
		<rect x="12" y="12" class="st3" width="1" height="1"/>
		<g id="_x3E__x5F_">
			<rect x="8" y="9" class="st4" width="3" height="1"/>
			<rect x="5" y="7" class="st4" width="1" height="1"/>
			<rect x="5" y="9" class="st4" width="1" height="1"/>
			<rect x="6" y="8" class="st4" width="1" height="1"/>
		</g>
	</g>
</g>
</svg>
