<?xml version="1.0" encoding="utf-8"?>
<!-- Generator: Adobe Illustrator 22.1.0, SVG Export Plug-In . SVG Version: 6.00 Build 0)  -->
<svg version="1.1" id="Layer_1" xmlns="http://www.w3.org/2000/svg" xmlns:xlink="http://www.w3.org/1999/xlink" x="0px" y="0px"
	 viewBox="0 0 16 16" style="enable-background:new 0 0 16 16;" xml:space="preserve">
<style type="text/css">
	.st0{fill:#666666;}
	.st1{fill:#B3B3B3;}
</style>
<g id="drive-removable-media">
	<path class="st0" d="M2,14v-2h12v2c0,0,0,1-1,1S3,15,3,15S2,15,2,14z"/>
	<path class="st1" d="M14,12c0,0,0,1-1,1H3c0,0-1,0-1-1V2c0,0,0-1,1-1h10c0,0,1,0,1,1V12z"/>
	<circle class="st0" cx="5.5" cy="9.5" r="1.5"/>
	<rect x="9" y="6" class="st0" width="3" height="3"/>
	<polygon class="st0" points="6,5 8,3 10,5 	"/>
</g>
</svg>
