<?xml version="1.0" encoding="utf-8"?>
<!-- Generator: Adobe Illustrator 22.1.0, SVG Export Plug-In . SVG Version: 6.00 Build 0)  -->
<svg version="1.1" id="Layer_1" xmlns="http://www.w3.org/2000/svg" xmlns:xlink="http://www.w3.org/1999/xlink" x="0px" y="0px"
	 viewBox="0 0 16 16" style="enable-background:new 0 0 16 16;" xml:space="preserve">
<style type="text/css">
	.st0{fill:#666666;}
	.st1{fill:#B3B3B3;}
</style>
<g id="drive-harddisk">
	<path class="st0" d="M2,14v-2h12v2c0,0,0,1-1,1S3,15,3,15S2,15,2,14z"/>
	<path class="st1" d="M14,12c0,0,0,1-1,1H3c0,0-1,0-1-1V2c0,0,0-1,1-1h10c0,0,1,0,1,1V12z"/>
	<path class="st0" d="M8,3C5.8,3,4,4.8,4,7s1.8,4,4,4s4-1.8,4-4S10.2,3,8,3z M8,9C6.9,9,6,8.1,6,7s0.9-2,2-2s2,0.9,2,2S9.1,9,8,9z"
		/>
</g>
</svg>
