<?xml version="1.0" encoding="utf-8"?>
<!-- Generator: Adobe Illustrator 22.1.0, SVG Export Plug-In . SVG Version: 6.00 Build 0)  -->
<svg version="1.1" id="Layer_1" xmlns="http://www.w3.org/2000/svg" xmlns:xlink="http://www.w3.org/1999/xlink" x="0px" y="0px"
	 viewBox="0 0 32 32" style="enable-background:new 0 0 32 32;" xml:space="preserve">
<style type="text/css">
	.st0{fill:#D86612;}
	.st1{fill:#F9F9F8;}
	.st2{fill:#B3B3B3;}
	.st3{fill:#FFB115;}
</style>
<g id="folder">
	<path class="st0" d="M4,6C2,6,2,8,2,8v4h28V6c0,0,0-2-2-2H16l-2,2H4z"/>
	<path class="st1" d="M4,10c0,0,0-2,2-2h18l4,4H4V10z"/>
	<polygon class="st2" points="28,12 24,8 24,12 	"/>
	<path class="st3" d="M2,12c0,0,0-2,2-2h10l2,2h14v14c0,0,0,2-2,2H4c0,0-2,0-2-2V12z"/>
	<g>
		<polygon class="st0" points="17,15 20,18 17,18 		"/>
		<polygon class="st0" points="16,15 16,19 20,19 20,25 12,25 12,15 		"/>
	</g>
</g>
</svg>
