<?xml version="1.0" encoding="utf-8"?>
<!-- Generator: Adobe Illustrator 22.1.0, SVG Export Plug-In . SVG Version: 6.00 Build 0)  -->
<svg version="1.1" id="Layer_1" xmlns="http://www.w3.org/2000/svg" xmlns:xlink="http://www.w3.org/1999/xlink" x="0px" y="0px"
	 viewBox="0 0 32 32" style="enable-background:new 0 0 32 32;" xml:space="preserve">
<style type="text/css">
	.st0{fill:#666666;}
	.st1{fill:#B3B3B3;}
</style>
<g id="user-trash_1_">
	<path class="st0" d="M20,2c4,0,4,4,4,4h2c4,0,4,4,4,4H2c0,0,0-4,4-4h2c0,0,0-4,4-4H20z"/>
	<path class="st1" d="M10,30c-4,0-4-4-4-4V12h20v14c0,0,0,4-4,4H10z"/>
	<path class="st0" d="M10,16v9c0,0,0,1,1,1s1-1,1-1v-9H10z"/>
	<path class="st0" d="M16,16v9c0,0,0,1,1,1s1-1,1-1v-9H16z"/>
	<path class="st0" d="M22,16v9c0,0,0,1,1,1s1-1,1-1v-9H22z"/>
</g>
</svg>
