<?xml version="1.0" encoding="utf-8"?>
<!-- Integer -->
<svg version="1.1" id="Layer_1" xmlns="http://www.w3.org/2000/svg" xmlns:xlink="http://www.w3.org/1999/xlink" x="0px" y="0px"
	 viewBox="0 0 16 16" style="enable-background:new 0 0 16 16;" xml:space="preserve">
<style type="text/css">
	.st0{fill:#F9F9F8;}
	.st1{fill:#F44336;}
</style>
<g id="audio-volume-muted">
	<path class="st0" d="M7.5,10l2-2l-2-2l2-2l2,2c0-1.5,0-2.8,0-3c0-2-2-2-2-2l-4,4h-2c-2,0-2,2-2,2v2c0,0,0,2,2,2h2l4,4c0,0,2,0,2-2
		c0,0,0-1.3,0-3l-2,2L7.5,10z"/>
	<polygon class="st1" points="12.5,8 14.5,6 13.5,5 11.5,7 9.5,5 8.5,6 10.5,8 8.5,10 9.5,11 11.5,9 13.5,11 14.5,10 	"/>
</g>
</svg>
