<?xml version="1.0" encoding="utf-8"?>
<!-- Integer -->
<svg version="1.1" id="Layer_1" xmlns="http://www.w3.org/2000/svg" xmlns:xlink="http://www.w3.org/1999/xlink" x="0px" y="0px"
	 viewBox="0 0 16 16" style="enable-background:new 0 0 16 16;" xml:space="preserve">
<style type="text/css">
	.st0{fill:#F9F9F8;}
</style>
<g id="audio-volume-high">
	<path class="st0" d="M14,4c0,0,2,1,2,4c0,3-2,4-2,4l-1-1c0,0,1-1,1-3s-1-3-1-3L14,4z"/>
	<path class="st0" d="M10,6c0-1.3,0-2.4,0-3c0-2-2-2-2-2L4,5H2C0,5,0,7,0,7v2c0,0,0,2,2,2h2l4,4c0,0,2,0,2-2c0,0,0-1.3,0-3
		c0,0,2,0,2-2S10,6,10,6z"/>
</g>
</svg>
